<svg width="40" height="40" viewBox="0 0 40 40" fill="none" xmlns="http://www.w3.org/2000/svg">
<g clip-path="url(#clip0_47_2)">
<g filter="url(#filter0_d_47_2)">
<path d="M15.75 29.0625C15.4167 29.0833 15 29.0729 14.5 29.0312C14.0208 28.9896 13.5729 29.0625 13.1562 29.25C12.0521 29.2083 10.9271 29.0729 9.78125 28.8438C8.63542 28.6146 7.58333 28.3333 6.625 28C6.41667 27.7708 6.20833 27.5625 6 27.375C5.79167 27.1667 5.51042 27.0208 5.15625 26.9375C4.65625 26.5417 4.25 26.0625 3.9375 25.5C3.625 24.9167 3.375 24.3021 3.1875 23.6562C3 23.0104 2.875 22.3542 2.8125 21.6875C2.75 21 2.72917 20.3438 2.75 19.7188C3.0625 18.7812 3.5 17.9792 4.0625 17.3125C4.64583 16.625 5.23958 15.9479 5.84375 15.2812C6.11458 15.1562 6.3125 15.0312 6.4375 14.9062C6.58333 14.7604 6.72917 14.6354 6.875 14.5312C7.04167 14.4062 7.19792 14.2917 7.34375 14.1875C7.51042 14.0625 7.65625 13.9167 7.78125 13.75C8.21875 13.6458 8.59375 13.5 8.90625 13.3125C9.23958 13.1042 9.5625 12.8958 9.875 12.6875C10.1875 12.4583 10.5104 12.25 10.8438 12.0625C11.1771 11.875 11.5625 11.7292 12 11.625C12.1667 11.4375 12.3646 11.2917 12.5938 11.1875C12.8229 11.0625 13.0521 10.9479 13.2812 10.8438C13.5312 10.7188 13.7604 10.5938 13.9688 10.4688C14.1979 10.3438 14.375 10.1771 14.5 9.96875C14.6042 10.1354 14.75 10.1979 14.9375 10.1562C15.125 10.0938 15.3021 10.0312 15.4688 9.96875C15.5729 9.94792 15.6562 9.96875 15.7188 10.0312C15.8021 10.0938 15.875 10.1562 15.9375 10.2188C16 10.2812 16.0521 10.3229 16.0938 10.3438C16.1562 10.3438 16.2083 10.2917 16.25 10.1875C16.3542 10.1875 16.3854 10.2396 16.3438 10.3438C16.3021 10.4479 16.2708 10.5208 16.25 10.5625C16.4167 10.5417 16.5521 10.5833 16.6562 10.6875C16.7812 10.7708 16.9688 10.8229 17.2188 10.8438C17.3021 10.9479 17.3229 11.0312 17.2812 11.0938C17.2396 11.1354 17.2188 11.2188 17.2188 11.3438C17.8438 11.5312 18.2396 11.8333 18.4062 12.25C18.5729 12.6458 18.5833 13.0625 18.4375 13.5C18.2917 13.9375 18.0312 14.3438 17.6562 14.7188C17.2812 15.0938 16.875 15.3438 16.4375 15.4688C15.4375 15.7396 14.4896 16.0417 13.5938 16.375C12.7188 16.6875 12 17.1562 11.4375 17.7812C10.9375 17.9271 10.4896 18.125 10.0938 18.375C9.71875 18.6042 9.35417 18.875 9 19.1875C8.66667 19.4792 8.34375 19.7917 8.03125 20.125C7.73958 20.4375 7.42708 20.75 7.09375 21.0625C7.11458 21.3542 7.0625 21.5833 6.9375 21.75C6.83333 21.8958 6.72917 22.0521 6.625 22.2188C6.66667 22.5312 6.73958 22.8125 6.84375 23.0625C6.94792 23.2917 7.0625 23.5208 7.1875 23.75C8.5625 24.1667 10.0208 24.4271 11.5625 24.5312C13.125 24.6354 14.6875 24.6979 16.25 24.7188C16.3958 24.9271 16.5625 25.125 16.75 25.3125C16.9583 25.4792 17.1458 25.6667 17.3125 25.875C17.4792 26.0625 17.6146 26.2812 17.7188 26.5312C17.8229 26.7604 17.8438 27.0521 17.7812 27.4062C17.4896 27.7188 17.1667 28.0104 16.8125 28.2812C16.4583 28.5312 16.1042 28.7917 15.75 29.0625ZM25.5938 23.3125C25.4062 23.3542 25.2708 23.4688 25.1875 23.6562C25.1042 23.8229 25.0208 24 24.9375 24.1875C24.875 24.375 24.8021 24.5521 24.7188 24.7188C24.6562 24.8646 24.5521 24.9375 24.4062 24.9375C24.3854 25.1042 24.3229 25.25 24.2188 25.375C24.1354 25.5 24.0521 25.6354 23.9688 25.7812C23.8854 25.9062 23.8229 26.0521 23.7812 26.2188C23.7396 26.3646 23.7604 26.5417 23.8438 26.75C23.6771 26.875 23.5729 27.0521 23.5312 27.2812C23.4896 27.5104 23.4375 27.7292 23.375 27.9375C23.3333 28.1458 23.25 28.3229 23.125 28.4688C23 28.6146 22.7708 28.6771 22.4375 28.6562C22.375 28.7396 22.3646 28.7917 22.4062 28.8125C22.4479 28.8333 22.4792 28.9062 22.5 29.0312C22.2708 28.9896 22.0938 29 21.9688 29.0625C21.8646 29.1458 21.7292 29.1979 21.5625 29.2188C21.1667 29.0938 20.8333 28.875 20.5625 28.5625C20.3125 28.25 20.0833 27.9062 19.875 27.5312C19.6875 27.1354 19.5104 26.7396 19.3438 26.3438C19.1979 25.9479 19.0521 25.6042 18.9062 25.3125C18.9688 25.0833 18.9792 24.8646 18.9375 24.6562C18.8958 24.4271 18.8229 24.2396 18.7188 24.0938C19.7396 21.9271 20.8542 19.6146 22.0625 17.1562C23.2708 14.6979 24.4167 12.2708 25.5 9.875C25.9792 10.0625 26.4479 10.2812 26.9062 10.5312C27.3854 10.7604 27.8125 11.0312 28.1875 11.3438C28.5833 11.6562 28.9167 12.0208 29.1875 12.4375C29.4583 12.8333 29.6354 13.2812 29.7188 13.7812C29.6771 13.9062 29.625 13.9583 29.5625 13.9375C29.5208 13.8958 29.4792 13.9062 29.4375 13.9688C29.5208 14.0729 29.5625 14.1458 29.5625 14.1875C29.5833 14.2292 29.5833 14.2708 29.5625 14.3125C29.5625 14.3542 29.5625 14.4167 29.5625 14.5C29.5625 14.5625 29.5938 14.6562 29.6562 14.7812C29.5729 14.7604 29.5104 14.7708 29.4688 14.8125C29.4479 14.8542 29.3854 14.8542 29.2812 14.8125C29.3646 15.0417 29.3854 15.2292 29.3438 15.375C29.3229 15.5208 29.2812 15.6562 29.2188 15.7812C29.1562 15.8854 29.1042 16.0104 29.0625 16.1562C29.0208 16.2812 29.0312 16.4479 29.0938 16.6562C29.0312 16.6562 28.9792 16.6771 28.9375 16.7188C28.9167 16.7396 28.8958 16.7708 28.875 16.8125C28.8542 16.8333 28.8229 16.8646 28.7812 16.9062C28.7604 16.9271 28.7188 16.9271 28.6562 16.9062C28.7188 17.3646 28.7396 17.8229 28.7188 18.2812C28.6979 18.7396 28.6771 19.2083 28.6562 19.6875C28.6562 20.1458 28.6667 20.6354 28.6875 21.1562C28.7083 21.6562 28.7812 22.1771 28.9062 22.7188C29.6562 22.2812 30.25 21.7188 30.6875 21.0312C31.1458 20.3438 31.5104 19.5729 31.7812 18.7188C32.0729 17.8646 32.2917 16.9479 32.4375 15.9688C32.5833 14.9896 32.7396 13.9896 32.9062 12.9688C33.0938 12.7812 33.2396 12.5521 33.3438 12.2812C33.4479 12.0104 33.5417 11.7292 33.625 11.4375C33.7083 11.125 33.7917 10.8229 33.875 10.5312C33.9583 10.2188 34.0625 9.9375 34.1875 9.6875C34.5 9.72917 34.7604 9.83333 34.9688 10C35.1979 10.1458 35.4062 10.3125 35.5938 10.5C35.7812 10.6667 35.9792 10.8333 36.1875 11C36.3958 11.1458 36.6562 11.2396 36.9688 11.2812C37.2188 11.6354 37.4479 11.9792 37.6562 12.3125C37.8646 12.6458 38 13 38.0625 13.375C37.9583 13.5417 37.875 13.7292 37.8125 13.9375C37.7708 14.1458 37.7188 14.3542 37.6562 14.5625C37.5938 14.7708 37.5104 14.9688 37.4062 15.1562C37.3021 15.3229 37.1562 15.4688 36.9688 15.5938C36.9062 16.1354 36.8229 16.6354 36.7188 17.0938C36.6354 17.5312 36.5417 17.9688 36.4375 18.4062C36.3542 18.8438 36.2812 19.3021 36.2188 19.7812C36.1562 20.2396 36.1354 20.75 36.1562 21.3125C35.9896 21.7917 35.8125 22.3021 35.625 22.8438C35.4375 23.3854 35.2917 23.875 35.1875 24.3125C34.8542 24.5833 34.5938 24.9062 34.4062 25.2812C34.2188 25.6562 34.0208 26.0312 33.8125 26.4062C33.7292 26.4896 33.6771 26.5104 33.6562 26.4688C33.6354 26.4271 33.5625 26.3958 33.4375 26.375C33.4583 26.4583 33.4583 26.5208 33.4375 26.5625C33.4167 26.6042 33.3854 26.6458 33.3438 26.6875C33.3229 26.7083 33.3021 26.75 33.2812 26.8125C33.2812 26.875 33.3021 26.9583 33.3438 27.0625C33.0521 27.1875 32.7917 27.3646 32.5625 27.5938C32.3333 27.8229 32.0833 28.0312 31.8125 28.2188C31.5625 28.4062 31.25 28.5312 30.875 28.5938C30.5208 28.6562 30.0521 28.5833 29.4688 28.375C28.6146 27.75 27.8542 27.0312 27.1875 26.2188C26.5417 25.4062 26.0104 24.4375 25.5938 23.3125Z" fill="#FFAE00"/>
</g>
</g>
<defs>
<filter id="filter0_d_47_2" x="0.71875" y="8.6875" width="43.3438" height="27.5625" filterUnits="userSpaceOnUse" color-interpolation-filters="sRGB">
<feFlood flood-opacity="0" result="BackgroundImageFix"/>
<feColorMatrix in="SourceAlpha" type="matrix" values="0 0 0 0 0 0 0 0 0 0 0 0 0 0 0 0 0 0 127 0" result="hardAlpha"/>
<feOffset dx="2" dy="3"/>
<feGaussianBlur stdDeviation="2"/>
<feComposite in2="hardAlpha" operator="out"/>
<feColorMatrix type="matrix" values="0 0 0 0 0 0 0 0 0 0 0 0 0 0 0 0 0 0 1 0"/>
<feBlend mode="normal" in2="BackgroundImageFix" result="effect1_dropShadow_47_2"/>
<feBlend mode="normal" in="SourceGraphic" in2="effect1_dropShadow_47_2" result="shape"/>
</filter>
<clipPath id="clip0_47_2">
<rect width="40" height="40" fill="white"/>
</clipPath>
</defs>
</svg>
